<mxfile host="Electron" agent="Mozilla/5.0 (Windows NT 10.0; Win64; x64) AppleWebKit/537.36 (KHTML, like Gecko) draw.io/24.7.17 Chrome/128.0.6613.36 Electron/32.0.1 Safari/537.36" version="24.7.17">
  <diagram name="Page-1" id="zpfm_NwF0GPi16eUVtaM">
    <mxGraphModel dx="1963" dy="1006" grid="1" gridSize="10" guides="1" tooltips="1" connect="1" arrows="1" fold="1" page="1" pageScale="1" pageWidth="1600" pageHeight="900" math="0" shadow="0">
      <root>
        <mxCell id="0" />
        <mxCell id="1" parent="0" />
        <mxCell id="7b09CnmE6rn7niKDXeS4-1" value="" style="rounded=1;whiteSpace=wrap;html=1;" vertex="1" parent="1">
          <mxGeometry x="40" y="40" width="1520" height="120" as="geometry" />
        </mxCell>
        <mxCell id="7b09CnmE6rn7niKDXeS4-2" value="" style="rounded=1;whiteSpace=wrap;html=1;arcSize=6;" vertex="1" parent="1">
          <mxGeometry x="920" y="200" width="390" height="640" as="geometry" />
        </mxCell>
        <mxCell id="7b09CnmE6rn7niKDXeS4-3" value="" style="rounded=1;whiteSpace=wrap;html=1;arcSize=6;" vertex="1" parent="1">
          <mxGeometry x="210" y="200" width="390" height="640" as="geometry" />
        </mxCell>
        <mxCell id="7b09CnmE6rn7niKDXeS4-4" value="" style="ellipse;whiteSpace=wrap;html=1;aspect=fixed;" vertex="1" parent="1">
          <mxGeometry x="255" y="250" width="300" height="300" as="geometry" />
        </mxCell>
        <mxCell id="7b09CnmE6rn7niKDXeS4-6" value="" style="endArrow=none;html=1;rounded=0;exitX=0;exitY=0;exitDx=0;exitDy=0;entryX=1;entryY=1;entryDx=0;entryDy=0;" edge="1" parent="1" source="7b09CnmE6rn7niKDXeS4-4" target="7b09CnmE6rn7niKDXeS4-4">
          <mxGeometry width="50" height="50" relative="1" as="geometry">
            <mxPoint x="730" y="540" as="sourcePoint" />
            <mxPoint x="780" y="490" as="targetPoint" />
          </mxGeometry>
        </mxCell>
        <mxCell id="7b09CnmE6rn7niKDXeS4-7" value="" style="endArrow=none;html=1;rounded=0;exitX=0;exitY=1;exitDx=0;exitDy=0;entryX=1;entryY=0;entryDx=0;entryDy=0;" edge="1" parent="1" source="7b09CnmE6rn7niKDXeS4-4" target="7b09CnmE6rn7niKDXeS4-4">
          <mxGeometry width="50" height="50" relative="1" as="geometry">
            <mxPoint x="309" y="304" as="sourcePoint" />
            <mxPoint x="521" y="516" as="targetPoint" />
          </mxGeometry>
        </mxCell>
        <mxCell id="7b09CnmE6rn7niKDXeS4-8" value="&lt;h1 style=&quot;margin-top: 0px;&quot;&gt;Heading&lt;/h1&gt;&lt;p&gt;Lorem ipsum dolor sit amet, consectetur adipisicing elit, sed do eiusmod tempor incididunt ut labore et dolore magna aliqua.&lt;/p&gt;" style="text;html=1;whiteSpace=wrap;overflow=hidden;rounded=0;" vertex="1" parent="1">
          <mxGeometry x="315" y="650" width="180" height="120" as="geometry" />
        </mxCell>
        <mxCell id="7b09CnmE6rn7niKDXeS4-9" value="&lt;font style=&quot;font-size: 48px;&quot;&gt;Text&lt;/font&gt;" style="text;html=1;align=center;verticalAlign=middle;whiteSpace=wrap;rounded=0;fontSize=50;" vertex="1" parent="1">
          <mxGeometry x="90" y="35" width="230" height="130" as="geometry" />
        </mxCell>
        <mxCell id="7b09CnmE6rn7niKDXeS4-10" value="&lt;font style=&quot;font-size: 24px;&quot;&gt;dit zijn links&lt;/font&gt;" style="text;html=1;align=center;verticalAlign=middle;whiteSpace=wrap;rounded=0;" vertex="1" parent="1">
          <mxGeometry x="1027.5" y="280" width="175" height="60" as="geometry" />
        </mxCell>
        <mxCell id="7b09CnmE6rn7niKDXeS4-11" value="" style="rounded=1;whiteSpace=wrap;html=1;" vertex="1" parent="1">
          <mxGeometry x="992.5" y="500" width="245" height="60" as="geometry" />
        </mxCell>
        <mxCell id="7b09CnmE6rn7niKDXeS4-12" value="" style="rounded=1;whiteSpace=wrap;html=1;" vertex="1" parent="1">
          <mxGeometry x="992.5" y="580" width="245" height="60" as="geometry" />
        </mxCell>
        <mxCell id="7b09CnmE6rn7niKDXeS4-13" value="" style="rounded=1;whiteSpace=wrap;html=1;" vertex="1" parent="1">
          <mxGeometry x="992.5" y="660" width="245" height="60" as="geometry" />
        </mxCell>
        <mxCell id="7b09CnmE6rn7niKDXeS4-14" value="" style="rounded=1;whiteSpace=wrap;html=1;" vertex="1" parent="1">
          <mxGeometry x="992.5" y="740" width="245" height="60" as="geometry" />
        </mxCell>
        <mxCell id="7b09CnmE6rn7niKDXeS4-16" value="" style="rounded=1;whiteSpace=wrap;html=1;" vertex="1" parent="1">
          <mxGeometry x="992.5" y="420" width="245" height="60" as="geometry" />
        </mxCell>
        <mxCell id="7b09CnmE6rn7niKDXeS4-17" value="" style="rounded=1;whiteSpace=wrap;html=1;" vertex="1" parent="1">
          <mxGeometry x="992.5" y="340" width="245" height="60" as="geometry" />
        </mxCell>
        <mxCell id="7b09CnmE6rn7niKDXeS4-18" value="Text" style="text;html=1;align=center;verticalAlign=middle;whiteSpace=wrap;rounded=0;" vertex="1" parent="1">
          <mxGeometry x="1085" y="355" width="60" height="30" as="geometry" />
        </mxCell>
        <mxCell id="7b09CnmE6rn7niKDXeS4-19" value="Text" style="text;html=1;align=center;verticalAlign=middle;whiteSpace=wrap;rounded=0;" vertex="1" parent="1">
          <mxGeometry x="1085" y="435" width="60" height="30" as="geometry" />
        </mxCell>
        <mxCell id="7b09CnmE6rn7niKDXeS4-20" value="Text" style="text;html=1;align=center;verticalAlign=middle;whiteSpace=wrap;rounded=0;" vertex="1" parent="1">
          <mxGeometry x="1085" y="515" width="60" height="30" as="geometry" />
        </mxCell>
        <mxCell id="7b09CnmE6rn7niKDXeS4-21" value="Text" style="text;html=1;align=center;verticalAlign=middle;whiteSpace=wrap;rounded=0;" vertex="1" parent="1">
          <mxGeometry x="1085" y="595" width="60" height="30" as="geometry" />
        </mxCell>
        <mxCell id="7b09CnmE6rn7niKDXeS4-22" value="Text" style="text;html=1;align=center;verticalAlign=middle;whiteSpace=wrap;rounded=0;" vertex="1" parent="1">
          <mxGeometry x="1085" y="675" width="60" height="30" as="geometry" />
        </mxCell>
        <mxCell id="7b09CnmE6rn7niKDXeS4-23" value="Text" style="text;html=1;align=center;verticalAlign=middle;whiteSpace=wrap;rounded=0;" vertex="1" parent="1">
          <mxGeometry x="1085" y="755" width="60" height="30" as="geometry" />
        </mxCell>
      </root>
    </mxGraphModel>
  </diagram>
</mxfile>
